P2
4 8 6
#This is a tiny 4x8 image with the same probability as in the example in the lecture.
1 1 1 2 1 1 5 1 1 1 3 1 1 4 1 5 1 2 1 5 1 1 3 1 1 1 5 1 6 1 2 3
